<svg width="12" height="12" viewBox="0 0 12 12" fill="none" xmlns="http://www.w3.org/2000/svg">
<g id="Heart_Solid">
<path id="Vector" d="M10.421 2.24951C9.87468 1.69828 9.14115 1.3725 8.36588 1.33676C7.59062 1.30102 6.83022 1.55793 6.2355 2.05655C6.16709 2.10818 6.08468 2.13795 5.99907 2.14197C5.91293 2.13946 5.82984 2.10953 5.76188 2.05655C5.16743 1.55765 4.40709 1.30055 3.63185 1.33629C2.8566 1.37204 2.12315 1.69802 1.57713 2.24951C0.989875 2.83676 0.666504 3.61773 0.666504 4.44827C0.666504 5.27882 0.989875 6.05979 1.5573 6.62569L4.96032 10.6091C5.08855 10.7595 5.2479 10.8803 5.42738 10.9632C5.60685 11.046 5.80216 11.0889 5.99983 11.0889C6.1975 11.0889 6.39282 11.046 6.57229 10.9632C6.75176 10.8803 6.91112 10.7595 7.03935 10.6091L10.4218 6.64704C10.7115 6.35898 10.9412 6.01633 11.0976 5.63892C11.2541 5.26151 11.3341 4.85682 11.3332 4.44827C11.3338 4.0397 11.2536 3.63505 11.097 3.25766C10.9404 2.88027 10.7107 2.53763 10.421 2.24951Z" fill="white"/>
</g>
</svg>
