<svg width="16" height="16" viewBox="0 0 16 16" fill="none" xmlns="http://www.w3.org/2000/svg">
<path fill-rule="evenodd" clip-rule="evenodd" d="M5.09611 2.30221V11.3359C4.56998 10.6849 3.76635 10.2669 2.86656 10.2669C1.28597 10.2669 0 11.5528 0 13.1334C0 14.714 1.28597 16 2.86656 16C4.44715 16 5.73313 14.714 5.73313 13.1334V2.81779L15.2883 0.786314V9.39596C14.7624 8.74501 13.959 8.32697 13.0588 8.32697C11.4782 8.32697 10.1922 9.61294 10.1922 11.1935C10.1922 12.7741 11.4782 14.0601 13.0588 14.0601C14.6394 14.0601 15.9253 12.7741 15.9253 11.1935V0L5.09611 2.30221ZM2.86656 15.363C1.63713 15.363 0.637014 14.3627 0.637014 13.1334C0.637014 11.9038 1.63713 10.9039 2.86656 10.9039C4.096 10.9039 5.09611 11.9038 5.09611 13.1334C5.09611 14.3625 4.0956 15.363 2.86656 15.363ZM13.0588 13.4231C11.8293 13.4231 10.8292 12.423 10.8292 11.1935C10.8292 9.96449 11.8293 8.96398 13.0588 8.96398C14.2882 8.96398 15.2883 9.96449 15.2883 11.1935C15.2883 12.4234 14.2878 13.4231 13.0588 13.4231Z" fill="#191414"/>
</svg>
