<svg width="16" height="15" viewBox="0 0 16 15" fill="none" xmlns="http://www.w3.org/2000/svg">
<path d="M14.6318 1.37475C13.8123 0.547916 12.712 0.0592422 11.5491 0.0056316C10.3862 -0.047979 9.24558 0.337388 8.35349 1.08532C8.25087 1.16276 8.12727 1.20742 7.99885 1.21344C7.86964 1.20968 7.74501 1.16479 7.64307 1.08532C6.75138 0.336963 5.61088 -0.0486924 4.44801 0.00492613C3.28515 0.0585447 2.18497 0.547516 1.36594 1.37475C0.485056 2.25563 0 3.42708 0 4.6729C0 5.91872 0.485056 7.09017 1.33619 7.93902L6.44072 13.9141C6.63307 14.1398 6.8721 14.321 7.14131 14.4453C7.41052 14.5695 7.70349 14.6339 7.99999 14.6339C8.2965 14.6339 8.58947 14.5695 8.85868 14.4453C9.12789 14.321 9.36692 14.1398 9.55927 13.9141L14.6329 7.97105C15.0675 7.53896 15.4121 7.02499 15.6467 6.45887C15.8814 5.89275 16.0014 5.28572 16 4.6729C16.001 4.06004 15.8806 3.45306 15.6457 2.88698C15.4109 2.3209 15.0663 1.80693 14.6318 1.37475Z" fill="#191414"/>
</svg>
