<svg width="16" height="16" viewBox="0 0 16 16" fill="none" xmlns="http://www.w3.org/2000/svg">
<g id="Search_Solid" clip-path="url(#clip0_48_102)">
<path id="Vector" d="M12.3643 10.9971L15.7791 14.9994L14.6042 16L11.1985 12.0069C10.097 12.7412 8.88222 13.1084 7.55421 13.1084C6.66684 13.1084 5.81773 12.9356 5.00689 12.5898C4.19604 12.244 3.49839 11.7789 2.91393 11.1945C2.32947 10.6101 1.86437 9.91241 1.51864 9.10154C1.1729 8.29068 1.00002 7.44157 1 6.55421C0.999976 5.66686 1.17286 4.81775 1.51864 4.00689C1.86442 3.19602 2.32952 2.49836 2.91393 1.91393C3.49834 1.3295 4.19599 0.864399 5.00689 0.518639C5.81778 0.17288 6.66689 0 7.55421 0C8.44154 0 9.29065 0.17288 10.1015 0.518639C10.9124 0.864399 11.6101 1.3295 12.1945 1.91393C12.7789 2.49836 13.244 3.19602 13.5898 4.00689C13.9356 4.81775 14.1085 5.66686 14.1084 6.55421C14.1084 7.11723 14.0381 7.668 13.8973 8.20653C13.7566 8.74506 13.5561 9.24688 13.296 9.71199C13.0359 10.1771 12.7254 10.6055 12.3643 10.9971H12.3643ZM7.55425 11.5662C8.23353 11.5662 8.88222 11.4331 9.50031 11.1669C10.1184 10.9007 10.6508 10.5442 11.0975 10.0975C11.5443 9.65075 11.9007 9.11834 12.167 8.50024C12.4332 7.88214 12.5663 7.23346 12.5663 6.55418C12.5663 5.8749 12.4332 5.22621 12.167 4.60812C11.9007 3.99002 11.5443 3.4576 11.0975 3.01085C10.6508 2.5641 10.1184 2.20763 9.50031 1.94144C8.88222 1.67524 8.23353 1.54215 7.55425 1.54215C6.87497 1.54215 6.22628 1.67524 5.60819 1.94144C4.99009 2.20763 4.45767 2.56411 4.01092 3.01088C3.56417 3.45766 3.2077 3.99007 2.94151 4.60812C2.67532 5.22616 2.54222 5.87485 2.54222 6.55418C2.54222 7.2335 2.67532 7.88219 2.94151 8.50024C3.2077 9.11829 3.56418 9.6507 4.01096 10.0975C4.45773 10.5442 4.99014 10.9007 5.60819 11.1669C6.22624 11.4331 6.87492 11.5662 7.55425 11.5662Z" fill="#191414"/>
</g>
<defs>
<clipPath id="clip0_48_102">
<rect width="16" height="16" fill="white"/>
</clipPath>
</defs>
</svg>
